<?xml version="1.0" encoding="UTF-8"?>
<svg width="130px" height="149px" viewBox="0 0 130 149" version="1.1" xmlns="http://www.w3.org/2000/svg" xmlns:xlink="http://www.w3.org/1999/xlink">
    <!-- Generator: Sketch 50.2 (55047) - http://www.bohemiancoding.com/sketch -->
    <title>Group</title>
    <desc>Created with Sketch.</desc>
    <defs></defs>
    <g id="Page-1" stroke="none" stroke-width="1" fill="none" fill-rule="evenodd">
        <g id="logo2" transform="translate(0.000000, -195.000000)">
            <g id="Group" transform="translate(0.000000, 195.000000)">
                <polygon id="Shape" fill="#C07507" fill-rule="nonzero" points="129.243 0 -2.84217094e-14 26.756 -2.84217094e-14 148.441 129.243 121.232"></polygon>
                <polygon id="Shape" fill="#FFFFFF" fill-rule="nonzero" points="22.045 44.743 15.396 44.743 15.396 51.742 23.032 51.742 23.032 52.927 14 52.927 14 36 22.963 36 22.963 37.233 15.396 37.233 15.396 43.557 22.045 43.557"></polygon>
                <path d="M39.7321979,49.032 C39.7321979,48.107 39.4621979,47.355 38.9241979,46.775 C38.3851979,46.196 37.4381979,45.685 36.0821979,45.241 C34.5401979,44.769 33.3721979,44.158 32.5771979,43.41 C31.7831979,42.663 31.3851979,41.661 31.3851979,40.406 C31.3851979,39.111 31.8291979,38.053 32.7161979,37.232 C33.6041979,36.41 34.7491979,36 36.1521979,36 C37.6241979,36 38.8081979,36.484 39.7031979,37.453 C40.5981979,38.422 41.0341979,39.603 41.0101979,40.998 L40.9761979,41.068 L39.6631979,41.068 C39.6631979,39.945 39.3501979,39.024 38.7261979,38.307 C38.1021979,37.591 37.2451979,37.232 36.1521979,37.232 C35.0891979,37.232 34.2641979,37.531 33.6751979,38.127 C33.0861979,38.724 32.7921979,39.472 32.7921979,40.371 C32.7921979,41.208 33.0771979,41.911 33.6461979,42.481 C34.2161979,43.05 35.1831979,43.548 36.5461979,43.974 C38.0501979,44.439 39.1911979,45.069 39.9701979,45.864 C40.7501979,46.658 41.1381979,47.702 41.1381979,48.996 C41.1381979,50.352 40.6791979,51.428 39.7611979,52.222 C38.8421979,53.016 37.6631979,53.414 36.2211979,53.414 C34.8031979,53.414 33.5691979,52.988 32.5191979,52.136 C31.4681979,51.283 30.9621979,50.047 31.0021979,48.427 L31.0251979,48.357 L32.3271979,48.357 C32.3271979,49.682 32.7091979,50.659 33.4721979,51.287 C34.2351979,51.914 35.1521979,52.227 36.2211979,52.227 C37.2751979,52.227 38.1241979,51.935 38.7671979,51.352 C39.4111979,50.77 39.7321979,49.997 39.7321979,49.032" id="Shape" fill="#FFFFFF" fill-rule="nonzero"></path>
                <path d="M51.396,45.916 L51.396,52.925 L50,52.925 L50,36 L55.011,36 C56.491,36 57.638,36.453 58.452,37.36 C59.266,38.266 59.672,39.464 59.672,40.952 C59.672,42.455 59.266,43.658 58.452,44.561 C57.638,45.464 56.491,45.916 55.011,45.916 L51.396,45.916 Z M51.396,44.695 L55.011,44.695 C56.096,44.695 56.91,44.341 57.453,43.632 C57.995,42.922 58.266,42.037 58.266,40.975 C58.266,39.898 57.995,39.005 57.453,38.296 C56.91,37.587 56.096,37.232 55.011,37.232 L51.396,37.232 L51.396,44.695 Z" id="Shape" fill="#FFFFFF" fill-rule="nonzero"></path>
                <path d="M75.055,48.23 L68.882,48.23 L67.441,52.927 L66,52.927 L71.358,36 L72.627,36 L77.927,52.927 L76.486,52.927 L75.055,48.23 Z M69.278,46.952 L74.673,46.952 L72.022,38.245 L71.952,38.245 L69.278,46.952 Z" id="Shape" fill="#FFFFFF" fill-rule="nonzero"></path>
                <path d="M95.87,48.252 L95.904,48.321 C95.889,49.972 95.455,51.233 94.602,52.106 C93.749,52.978 92.576,53.414 91.08,53.414 C89.522,53.414 88.286,52.863 87.372,51.764 C86.458,50.663 86,49.094 86,47.055 L86,42.37 C86,40.348 86.46,38.78 87.378,37.668 C88.296,36.556 89.53,36 91.08,36 C92.592,36 93.769,36.426 94.614,37.279 C95.459,38.131 95.889,39.402 95.904,41.092 L95.87,41.16 L94.579,41.16 C94.541,39.82 94.23,38.83 93.649,38.19 C93.068,37.551 92.211,37.231 91.08,37.231 C89.918,37.231 89.013,37.67 88.36,38.547 C87.709,39.424 87.383,40.69 87.383,42.342 L87.383,47.069 C87.383,48.754 87.708,50.035 88.36,50.912 C89.012,51.788 89.918,52.228 91.08,52.228 C92.212,52.228 93.068,51.914 93.649,51.287 C94.23,50.658 94.541,49.647 94.579,48.252 L95.87,48.252 Z" id="Shape" fill="#FFFFFF" fill-rule="nonzero"></path>
                <polygon id="Shape" fill="#FFFFFF" fill-rule="nonzero" points="113.045 44.743 106.397 44.743 106.397 51.742 114.033 51.742 114.033 52.927 105 52.927 105 36 113.963 36 113.963 37.233 106.397 37.233 106.397 43.557 113.045 43.557"></polygon>
                <path d="M17.019,68.31 L17.019,74.464 L14,74.464 L14,59 L19.049,59 C20.573,59 21.768,59.402 22.636,60.207 C23.504,61.01 23.938,62.128 23.938,63.559 C23.938,64.369 23.757,65.063 23.396,65.648 C23.035,66.234 22.506,66.7 21.812,67.045 C22.606,67.316 23.178,67.761 23.529,68.385 C23.879,69.008 24.055,69.788 24.055,70.723 L24.055,71.819 C24.055,72.244 24.105,72.7 24.204,73.184 C24.303,73.669 24.476,74.022 24.725,74.242 L24.725,74.465 L21.6,74.465 C21.352,74.239 21.196,73.871 21.132,73.361 C21.069,72.85 21.037,72.33 21.037,71.798 L21.037,70.747 C21.037,69.974 20.878,69.376 20.564,68.95 C20.248,68.524 19.796,68.311 19.208,68.311 L17.019,68.311 L17.019,68.31 Z M17.019,65.898 L19.039,65.898 C19.655,65.898 20.123,65.711 20.441,65.336 C20.76,64.96 20.919,64.425 20.919,63.731 C20.919,63.022 20.76,62.46 20.441,62.042 C20.123,61.624 19.659,61.415 19.049,61.415 L17.019,61.415 L17.019,65.898 Z" id="Shape" fill="#FFFFFF" fill-rule="nonzero"></path>
                <polygon id="Shape" fill="#FFFFFF" fill-rule="nonzero" points="35.227 67.685 30.03 67.685 30.03 72.064 36.141 72.064 36.141 74.477 27 74.477 27 59 36.12 59 36.12 61.414 30.03 61.414 30.03 65.273 35.227 65.273"></polygon>
                <polygon id="Rectangle-path" fill="#FFFFFF" fill-rule="nonzero" points="37 66 42.282 66 42.282 68.413 37 68.413"></polygon>
                <path d="M52.2807419,70.658 C52.2807419,70.056 52.1247419,69.581 51.8127419,69.228 C51.5017419,68.878 50.9517419,68.533 50.1667419,68.192 C48.5577419,67.633 47.3517419,66.998 46.5477419,66.286 C45.7437419,65.572 45.3417419,64.576 45.3417419,63.294 C45.3417419,62.024 45.8087419,60.993 46.7447419,60.194 C47.6787419,59.397 48.8737419,59 50.3257419,59 C51.7987419,59 52.9967419,59.443 53.9177419,60.334 C54.8387419,61.222 55.2847419,62.345 55.2567419,63.696 L55.2347419,63.761 L52.3017419,63.761 C52.3017419,63.052 52.1247419,62.478 51.7697419,62.039 C51.4157419,61.599 50.9177419,61.38 50.2727419,61.38 C49.6707419,61.38 49.2007419,61.562 48.8647419,61.927 C48.5277419,62.292 48.3597419,62.751 48.3597419,63.304 C48.3597419,63.813 48.5477419,64.233 48.9237419,64.562 C49.2987419,64.892 49.9507419,65.259 50.8787419,65.664 C52.3437419,66.16 53.4477419,66.789 54.1877419,67.551 C54.9277419,68.312 55.2997419,69.342 55.2997419,70.638 C55.2997419,71.977 54.8527419,73.026 53.9597419,73.784 C53.0667419,74.543 51.8807419,74.923 50.3997419,74.923 C48.9267419,74.923 47.6487419,74.491 46.5687419,73.631 C45.4877419,72.77 44.9657419,71.534 45.0017419,69.927 L45.0217419,69.863 L47.9667419,69.863 C47.9667419,70.819 48.1687419,71.508 48.5717419,71.925 C48.9757419,72.344 49.5857419,72.553 50.3997419,72.553 C51.0367419,72.553 51.5097419,72.382 51.8177419,72.042 C52.1267419,71.701 52.2807419,71.239 52.2807419,70.658" id="Shape" fill="#FFFFFF" fill-rule="nonzero"></path>
                <path d="M66.799,69.14 C66.799,70.954 66.307,72.371 65.321,73.391 C64.336,74.412 63.025,74.922 61.389,74.922 C59.752,74.922 58.444,74.412 57.467,73.391 C56.489,72.371 56,70.954 56,69.14 L56,64.803 C56,62.997 56.489,61.578 57.467,60.546 C58.444,59.516 59.748,59 61.378,59 C63.008,59 64.318,59.516 65.311,60.546 C66.303,61.578 66.799,62.997 66.799,64.803 L66.799,69.14 Z M63.79,64.771 C63.79,63.664 63.584,62.827 63.174,62.26 C62.763,61.697 62.164,61.414 61.377,61.414 C60.584,61.414 59.988,61.694 59.592,62.255 C59.194,62.817 58.996,63.655 58.996,64.771 L58.996,69.141 C58.996,70.264 59.198,71.107 59.603,71.667 C60.006,72.229 60.602,72.509 61.388,72.509 C62.167,72.509 62.763,72.23 63.174,71.667 C63.584,71.106 63.79,70.264 63.79,69.141 L63.79,64.771 Z" id="Shape" fill="#FFFFFF" fill-rule="nonzero"></path>
                <path d="M79.501,59 L79.501,69.532 C79.501,71.184 79.019,72.458 78.05,73.353 C77.083,74.25 75.817,74.698 74.25,74.698 C72.686,74.698 71.418,74.249 70.451,73.348 C69.483,72.448 69,71.177 69,69.532 L69,59 L72.02,59 L72.02,69.532 C72.02,70.475 72.213,71.17 72.605,71.615 C72.994,72.062 73.543,72.285 74.251,72.285 C74.981,72.285 75.537,72.072 75.92,71.647 C76.303,71.223 76.494,70.518 76.494,69.532 L76.494,59 L79.501,59 Z" id="Shape" fill="#FFFFFF" fill-rule="nonzero"></path>
                <path d="M84.019,68.31 L84.019,74.464 L81,74.464 L81,59 L86.049,59 C87.572,59 88.768,59.402 89.636,60.207 C90.504,61.01 90.938,62.128 90.938,63.559 C90.938,64.369 90.757,65.063 90.396,65.648 C90.036,66.234 89.506,66.7 88.812,67.045 C89.606,67.316 90.178,67.761 90.529,68.385 C90.88,69.008 91.055,69.788 91.055,70.723 L91.055,71.819 C91.055,72.244 91.105,72.7 91.204,73.184 C91.303,73.669 91.475,74.022 91.725,74.242 L91.725,74.465 L88.6,74.465 C88.352,74.239 88.196,73.871 88.132,73.361 C88.068,72.851 88.037,72.33 88.037,71.798 L88.037,70.747 C88.037,69.974 87.878,69.376 87.563,68.95 C87.248,68.524 86.795,68.311 86.208,68.311 L84.019,68.311 L84.019,68.31 Z M84.019,65.898 L86.04,65.898 C86.655,65.898 87.124,65.711 87.441,65.336 C87.76,64.96 87.92,64.425 87.92,63.731 C87.92,63.022 87.761,62.46 87.441,62.042 C87.124,61.624 86.66,61.415 86.049,61.415 L84.019,61.415 L84.019,65.898 Z" id="Shape" fill="#FFFFFF" fill-rule="nonzero"></path>
                <path d="M103.088,69.715 L103.119,69.777 C103.134,71.478 102.729,72.761 101.908,73.625 C101.086,74.489 99.874,74.923 98.274,74.923 C96.671,74.923 95.392,74.432 94.436,73.449 C93.479,72.469 93,71.077 93,69.277 L93,64.654 C93,62.861 93.463,61.471 94.388,60.483 C95.313,59.494 96.55,59 98.102,59 C99.747,59 100.988,59.44 101.828,60.318 C102.668,61.196 103.101,62.497 103.13,64.219 L103.099,64.281 L100.187,64.281 C100.229,63.265 100.091,62.532 99.772,62.084 C99.454,61.637 98.897,61.412 98.103,61.412 C97.423,61.412 96.903,61.679 96.541,62.21 C96.179,62.741 95.999,63.548 95.999,64.625 L95.999,69.274 C95.999,70.366 96.192,71.178 96.578,71.71 C96.964,72.242 97.529,72.509 98.274,72.509 C99.003,72.509 99.511,72.298 99.797,71.875 C100.084,71.454 100.21,70.733 100.175,69.714 L103.088,69.714 L103.088,69.715 Z" id="Shape" fill="#FFFFFF" fill-rule="nonzero"></path>
                <polygon id="Shape" fill="#FFFFFF" fill-rule="nonzero" points="113.227 67.685 108.03 67.685 108.03 72.064 114.141 72.064 114.141 74.477 105 74.477 105 59 114.121 59 114.121 61.414 108.03 61.414 108.03 65.273 113.227 65.273"></polygon>
                <path d="M114.469021,90 L116.908028,104.229651 L113.097624,102.884891 C112.998427,103.053681 112.897608,103.224787 112.790009,103.409274 C112.235511,104.289941 111.578527,105.251636 110.733898,106.31242 C109.905084,107.376508 108.898711,108.493228 107.77016,109.659923 C106.613229,110.798114 105.340316,111.998388 103.90214,113.142506 C102.48609,114.314201 100.904257,115.426787 99.2357084,116.514045 C97.5538388,117.583344 95.7575699,118.585487 93.8795192,119.492385 C91.9822411,120.365103 90.0259412,121.185271 87.9923366,121.791614 C85.9593125,122.389732 83.8968727,122.901648 81.8152414,123.120443 C79.7426447,123.355923 77.6792802,123.436446 75.7020392,123.216448 C74.7123387,123.16655 73.7538288,122.936498 72.8173199,122.79091 C71.8983212,122.531552 70.9815109,122.365227 70.1398578,122.026229 C69.7173494,121.870227 69.2984901,121.717643 68.8880302,121.566624 C68.4817426,121.404715 68.0993854,121.200001 67.7159816,121.023903 C66.9396136,120.686593 66.2447636,120.258753 65.5800334,119.852003 C64.8953715,119.476183 64.3182393,118.996108 63.7458479,118.58323 C63.1625642,118.183443 62.676667,117.719774 62.2099379,117.301465 C61.2449038,116.498848 60.5621052,115.638342 59.939753,114.99971 C59.3555229,114.323893 58.9502779,113.747507 58.6505497,113.377939 C58.3578316,113.002059 58.2027271,112.801952 58.2027271,112.801952 C58.2027271,112.801952 58.3774136,112.986421 58.70553,113.332705 C59.0412942,113.670532 59.4972331,114.200409 60.1396907,114.809095 C60.818127,115.379959 61.5658755,116.153871 62.5850884,116.843361 C63.0792257,117.204035 63.5898668,117.606477 64.1932037,117.93571 C64.7846633,118.278208 65.3768674,118.682515 66.06716,118.975092 C66.7396641,119.299237 67.4333677,119.639953 68.1983367,119.883822 C68.577692,120.013925 68.9515404,120.170383 69.34538,120.284731 C69.7442031,120.38703 70.149456,120.491242 70.5589954,120.596729 C71.3679906,120.836897 72.24357,120.901841 73.1062183,121.060453 C73.9914746,121.105413 74.8814692,121.234834 75.8002209,121.187576 C77.6283233,121.212508 79.51173,120.946415 81.3815422,120.545637 C83.2582457,120.160906 85.1053863,119.499099 86.9063672,118.771305 C88.7097245,118.033954 90.430677,117.099923 92.0831045,116.134313 C93.7200701,115.132842 95.2695164,114.055415 96.7029387,112.930412 C98.1224024,111.789593 99.4545109,110.642854 100.621238,109.462319 C101.811887,108.308028 102.833445,107.127705 103.748114,106.032232 C104.632316,104.913699 105.401635,103.86924 106.003414,102.911187 C106.503849,102.138549 106.909044,101.413168 107.221188,100.810814 L103.470332,99.4870316 L114.469021,90 Z" id="Shape" fill="#FFFFFF" fill-rule="nonzero"></path>
                <path d="M18.890625,85.1269531 L16.2724609,85.1269531 L16.2724609,94 L15.0214844,94 L15.0214844,85.1269531 L12.4101562,85.1269531 L12.4101562,84.046875 L18.890625,84.046875 L18.890625,85.1269531 Z M25.1318359,89.3994141 L21.6113281,89.3994141 L21.6113281,92.9267578 L25.7128906,92.9267578 L25.7128906,94 L20.3603516,94 L20.3603516,84.046875 L25.6445312,84.046875 L25.6445312,85.1269531 L21.6113281,85.1269531 L21.6113281,88.3261719 L25.1318359,88.3261719 L25.1318359,89.3994141 Z M24.7695312,83.171875 L24.7695312,83.2402344 L23.7988281,83.2402344 L22.9785156,82.078125 L22.1582031,83.2402344 L21.1875,83.2402344 L21.1875,83.1582031 L22.6162109,81.2988281 L23.3339844,81.2988281 L24.7695312,83.171875 Z M33.2666016,85.1269531 L30.6484375,85.1269531 L30.6484375,94 L29.3974609,94 L29.3974609,85.1269531 L26.7861328,85.1269531 L26.7861328,84.046875 L33.2666016,84.046875 L33.2666016,85.1269531 Z M39.5078125,89.3994141 L35.9873047,89.3994141 L35.9873047,92.9267578 L40.0888672,92.9267578 L40.0888672,94 L34.7363281,94 L34.7363281,84.046875 L40.0205078,84.046875 L40.0205078,85.1269531 L35.9873047,85.1269531 L35.9873047,88.3261719 L39.5078125,88.3261719 L39.5078125,89.3994141 Z M44.8945312,94 L44.8945312,84.046875 L47.2666016,84.046875 C48.4287167,84.046875 49.3310515,84.4103154 49.9736328,85.137207 C50.6162142,85.8640987 50.9375,86.8860611 50.9375,88.203125 L50.9375,89.8710938 C50.9375,91.1881576 50.6116569,92.2055628 49.9599609,92.9233398 C49.308265,93.6411169 48.3626364,94 47.1230469,94 L44.8945312,94 Z M46.1455078,85.1269531 L46.1455078,92.9267578 L47.1503906,92.9267578 C48.0299523,92.9267578 48.672524,92.67497 49.078125,92.1713867 C49.483726,91.6678035 49.6910807,90.9215544 49.7001953,89.9326172 L49.7001953,88.1689453 C49.7001953,87.120763 49.4985372,86.3517277 49.0952148,85.8618164 C48.6918925,85.3719051 48.0823608,85.1269531 47.2666016,85.1269531 L46.1455078,85.1269531 Z M52.8720703,86.8496094 L52.1953125,86.3574219 C52.550783,85.7604137 52.7353515,85.1406282 52.7490234,84.4980469 L52.7490234,83.5 L53.9453125,83.5 L53.9453125,84.4228516 C53.9361979,84.8603538 53.8347991,85.3035459 53.6411133,85.7524414 C53.4474274,86.2013369 53.1910823,86.5670559 52.8720703,86.8496094 Z M62.0800781,89.8984375 C62.0800781,91.2565172 61.790693,92.3024052 61.2119141,93.0361328 C60.6331351,93.7698604 59.8105522,94.1367188 58.7441406,94.1367188 C57.7187449,94.1367188 56.9086944,93.7801142 56.3139648,93.0668945 C55.7192353,92.3536748 55.4104819,91.3453841 55.3876953,90.0419922 L55.3876953,88.1689453 C55.3876953,86.8382095 55.6816377,85.7957394 56.2695312,85.0415039 C56.8574248,84.2872684 57.6777291,83.9101562 58.7304688,83.9101562 C59.7786511,83.9101562 60.5955374,84.271318 61.1811523,84.9936523 C61.7667673,85.7159867 62.0664062,86.7470636 62.0800781,88.0869141 L62.0800781,89.8984375 Z M60.8291016,88.1552734 C60.8291016,87.1025338 60.6570655,86.3198268 60.3129883,85.8071289 C59.968911,85.294431 59.4414098,85.0380859 58.7304688,85.0380859 C58.0423143,85.0380859 57.5216489,85.297849 57.168457,85.8173828 C56.8152652,86.3369167 56.6363933,87.102534 56.6318359,88.1142578 L56.6318359,89.8984375 C56.6318359,90.9147186 56.8084292,91.6894505 57.1616211,92.2226562 C57.514813,92.755862 58.0423142,93.0224609 58.7441406,93.0224609 C59.4459671,93.0224609 59.9654931,92.7763696 60.3027344,92.2841797 C60.6399756,91.7919897 60.8154296,91.0377655 60.8291016,90.0214844 L60.8291016,88.1552734 Z M67.0224609,89.9736328 L65.2724609,89.9736328 L65.2724609,94 L64.0146484,94 L64.0146484,84.046875 L66.8037109,84.046875 C67.7789762,84.046875 68.5172501,84.3009415 69.0185547,84.809082 C69.5198593,85.3172226 69.7705078,86.061193 69.7705078,87.0410156 C69.7705078,87.6562531 69.6349297,88.1928688 69.3637695,88.6508789 C69.0926093,89.108889 68.7086613,89.4541004 68.2119141,89.6865234 L70.1396484,93.9179688 L70.1396484,94 L68.7929688,94 L67.0224609,89.9736328 Z M65.2724609,88.9003906 L66.7900391,88.9003906 C67.3141302,88.9003906 67.7322576,88.7317725 68.0444336,88.3945312 C68.3566096,88.05729 68.5126953,87.6061226 68.5126953,87.0410156 C68.5126953,85.7649676 67.9339251,85.1269531 66.7763672,85.1269531 L65.2724609,85.1269531 L65.2724609,88.9003906 Z M14.3310547,106.926758 L18.234375,106.926758 L18.234375,108 L13.0732422,108 L13.0732422,98.046875 L14.3310547,98.046875 L14.3310547,106.926758 Z M20.6816406,103.043945 L22.71875,98.046875 L24.1337891,98.046875 L21.3037109,104.288086 L21.3037109,108 L20.0527344,108 L20.0527344,104.288086 L17.2226562,98.046875 L18.6445312,98.046875 L20.6816406,103.043945 Z M31.7080078,103.898438 C31.7080078,105.256517 31.4186227,106.302405 30.8398438,107.036133 C30.2610648,107.76986 29.4384819,108.136719 28.3720703,108.136719 C27.3466746,108.136719 26.5366241,107.780114 25.9418945,107.066895 C25.347165,106.353675 25.0384116,105.345384 25.015625,104.041992 L25.015625,102.168945 C25.015625,100.838209 25.3095674,99.7957394 25.8974609,99.0415039 C26.4853545,98.2872684 27.3056588,97.9101562 28.3583984,97.9101562 C29.4065808,97.9101562 30.2234671,98.271318 30.809082,98.9936523 C31.3946969,99.7159867 31.6943359,100.747064 31.7080078,102.086914 L31.7080078,103.898438 Z M30.4570312,102.155273 C30.4570312,101.102534 30.2849952,100.319827 29.940918,99.8071289 C29.5968407,99.294431 29.0693395,99.0380859 28.3583984,99.0380859 C27.670244,99.0380859 27.1495786,99.297849 26.7963867,99.8173828 C26.4431948,100.336917 26.2643229,101.102534 26.2597656,102.114258 L26.2597656,103.898438 C26.2597656,104.914719 26.4363589,105.68945 26.7895508,106.222656 C27.1427427,106.755862 27.6702439,107.022461 28.3720703,107.022461 C29.0738967,107.022461 29.5934228,106.77637 29.9306641,106.28418 C30.2679053,105.79199 30.4433593,105.037765 30.4570312,104.021484 L30.4570312,102.155273 Z M40.1435547,108 L38.8857422,108 L34.9003906,100.330078 L34.9003906,108 L33.6425781,108 L33.6425781,98.046875 L34.9003906,98.046875 L38.8994141,105.750977 L38.8994141,98.046875 L40.1435547,98.046875 L40.1435547,108 Z" id="Tête-d’Or-Lyon" fill="#FFFFFF"></path>
            </g>
        </g>
    </g>
</svg>